<svg width="547" height="199" viewBox="0 0 547 199" fill="none" xmlns="http://www.w3.org/2000/svg">
<path d="M121.854 67.3017C121.833 67.502 121.808 67.7003 121.799 67.9006C121.728 69.6404 122.065 71.3946 122.801 73.0154L98.8731 95.0544L74.9453 117.093C73.2114 116.127 71.2704 115.657 69.3294 115.681L43.538 40.4546C44.6285 39.8702 45.6609 39.16 46.5966 38.2978C47.5313 37.4376 48.3247 36.4662 48.9972 35.426L121.854 67.3017Z" fill="white"/>
<path d="M21.7188 126.022L58.5254 129.409C58.955 131.295 59.8597 133.049 61.2057 134.509C62.6222 136.048 64.3746 137.089 66.2459 137.646L67.0142 167.1L67.347 179.89C66.2739 180.321 65.2531 180.915 64.3146 181.674L18.2596 131.672C19.8446 130.054 21.0221 128.132 21.7188 126.022Z" fill="white"/>
<path d="M36.005 42.1844C36.2449 42.194 36.482 42.1805 36.72 42.1795L62.6943 117.939C62.4079 118.156 62.1273 118.385 61.8573 118.635C60.6836 119.715 59.7799 121.009 59.1645 122.431L22.2873 119.038C21.8364 116.2 20.565 113.556 18.5736 111.394C16.6752 109.332 14.2813 107.9 11.6427 107.178L32.9773 41.7402C33.9585 41.9879 34.9706 42.1428 36.005 42.1844Z" fill="white"/>
<path d="M80.6276 128.095C80.8385 126.119 80.5327 124.096 79.6929 122.247L127.548 78.1681C129.322 79.156 131.312 79.6273 133.3 79.5789L160.991 157.283C159.959 157.85 158.983 158.532 158.095 159.349C157.206 160.167 156.448 161.085 155.798 162.066L80.6276 128.095Z" fill="white"/>
<path d="M120.275 17.7193C122.466 20.0976 125.315 21.6419 128.44 22.2128L128.47 23.4794L129.27 57.7741C127.878 58.2647 126.561 59.0368 125.409 60.0983C125.138 60.3469 124.887 60.6072 124.647 60.8752L99.6726 49.9481L51.2732 28.7741C51.2944 28.537 51.3273 28.3019 51.337 28.0619C51.3786 27.0605 51.3177 26.0697 51.1628 25.1011L116.548 9.99102C116.987 12.8609 118.264 15.5363 120.275 17.7193Z" fill="white"/>
<path d="M185.207 66.4581C183.84 67.7189 182.753 69.2003 181.959 70.822L144.026 66.1795C143.641 64.2152 142.738 62.3274 141.285 60.7503C139.877 59.2214 138.136 58.1842 136.276 57.6239L135.452 22.29L135.44 21.813C137.522 21.1763 139.454 20.0917 141.102 18.5745C141.108 18.5696 141.113 18.5628 141.118 18.558L185.224 66.4446C185.219 66.4494 185.213 66.4533 185.207 66.4581Z" fill="white"/>
<path d="M168.685 155.463C168.383 155.451 168.083 155.465 167.782 155.471L139.902 77.2346C140.151 77.0411 140.397 76.8437 140.633 76.626C141.736 75.61 142.585 74.4189 143.185 73.1368L180.474 77.7C180.565 81.2647 181.913 84.6387 184.351 87.286C186.184 89.2764 188.48 90.6765 191.009 91.4206L171.444 155.842C170.547 155.634 169.625 155.502 168.685 155.463Z" fill="white"/>
<path d="M80.5897 182.859C78.8606 180.982 76.6632 179.795 74.34 179.294L73.2505 137.479C74.6322 136.987 75.9385 136.217 77.0832 135.162C77.3193 134.945 77.536 134.715 77.7489 134.483L153.434 168.687C153.404 168.985 153.366 169.283 153.352 169.586C153.313 170.558 153.369 171.521 153.514 172.462L83.3919 188.056C82.9159 186.136 81.9666 184.354 80.5897 182.859Z" fill="white"/>
<path d="M13.4204 116.141C14.867 117.711 15.5404 119.72 15.4592 121.697C15.3779 123.675 14.5419 125.621 12.9724 127.067C9.83062 129.961 4.93843 129.76 2.0453 126.619C0.598734 125.048 -0.0747166 123.04 0.00656193 121.062C0.0878404 119.084 0.92288 117.139 2.49426 115.692C5.6351 112.798 10.5273 112.999 13.4204 116.141Z" fill="white"/>
<path d="M44.3365 27.774C44.2562 29.7517 43.4202 31.6986 41.8488 33.1451C38.7079 36.0383 33.8157 35.837 30.9226 32.6962C29.4761 31.1248 28.8026 29.117 28.8839 27.1392C28.9652 25.1624 29.8002 23.2156 31.3716 21.769C34.5124 18.8759 39.4046 19.0762 42.2977 22.218C43.7453 23.7884 44.4178 25.7972 44.3365 27.774Z" fill="white"/>
<path d="M136.355 13.4207C133.214 16.3138 128.321 16.1135 125.428 12.9717C123.982 11.4013 123.309 9.3935 123.389 7.41573C123.471 5.43795 124.307 3.4921 125.877 2.04554C129.018 -0.848555 133.91 -0.647294 136.804 2.49451C138.251 4.06492 138.923 6.07366 138.842 8.05047C138.761 10.0282 137.926 11.9741 136.355 13.4207Z" fill="white"/>
<path d="M189.505 82.5388C188.059 80.9684 187.385 78.9597 187.467 76.9829C187.548 75.0051 188.384 73.0592 189.954 71.6117C193.095 68.7186 197.988 68.9198 200.881 72.0607C202.328 73.6311 203.001 75.6398 202.919 77.6176C202.838 79.5944 202.003 81.5412 200.433 82.9878C197.291 85.8809 192.399 85.6806 189.505 82.5388Z" fill="white"/>
<path d="M160.354 169.873C160.435 167.896 161.27 165.949 162.841 164.502C165.982 161.61 170.874 161.81 173.767 164.952C175.215 166.522 175.888 168.53 175.807 170.508C175.726 172.485 174.889 174.431 173.318 175.879C170.178 178.771 165.286 178.571 162.392 175.429C160.946 173.859 160.272 171.851 160.354 169.873Z" fill="white"/>
<path d="M66.5709 185.259C69.7127 182.366 74.6049 182.567 77.4971 185.708C78.9446 187.278 79.6171 189.287 79.5358 191.265C79.4545 193.241 78.6195 195.188 77.0491 196.634C73.9073 199.528 69.0151 199.327 66.122 196.186C64.6754 194.615 64.0019 192.607 64.0832 190.63C64.1645 188.651 64.9995 186.705 66.5709 185.259Z" fill="white"/>
<path d="M288.381 120.244H257.203L252.205 135H230.904L261.13 51.462H284.692L314.918 135H293.379L288.381 120.244ZM283.145 104.536L272.792 73.953L262.558 104.536H283.145ZM344.466 67.765V84.663H371.717V100.371H344.466V118.697H375.287V135H324.117V51.462H375.287V67.765H344.466ZM431.1 135L413.726 103.465H408.847V135H388.498V51.462H422.651C429.236 51.462 434.829 52.6123 439.43 54.913C444.111 57.2137 447.601 60.387 449.902 64.433C452.203 68.3997 453.353 72.8423 453.353 77.761C453.353 83.3143 451.766 88.2727 448.593 92.636C445.499 96.9993 440.898 100.093 434.789 101.918L454.067 135H431.1ZM408.847 89.066H421.461C425.19 89.066 427.966 88.1537 429.791 86.329C431.695 84.5043 432.647 81.926 432.647 78.594C432.647 75.4207 431.695 72.9217 429.791 71.097C427.966 69.2723 425.19 68.36 421.461 68.36H408.847V89.066ZM518.13 120.244H486.952L481.954 135H460.653L490.879 51.462H514.441L544.667 135H523.128L518.13 120.244ZM512.894 104.536L502.541 73.953L492.307 104.536H512.894Z" fill="white"/>
</svg>
