<svg width="50" height="50" viewBox="0 0 50 50" fill="none" xmlns="http://www.w3.org/2000/svg">
<path d="M30.0242 17.405C30.0192 17.4543 30.013 17.5032 30.0108 17.5526C29.9932 17.9812 30.0761 18.4135 30.2576 18.8128L24.3619 24.2431L18.4662 29.6732C18.0389 29.4353 17.5607 29.3194 17.0824 29.3254L10.7275 10.79C10.9962 10.646 11.2506 10.471 11.4812 10.2586C11.7115 10.0466 11.907 9.80725 12.0727 9.55096L30.0242 17.405Z" fill="#47BCC4"/>
<path d="M5.35141 31.8735L14.4204 32.708C14.5262 33.1726 14.7492 33.6049 15.0808 33.9646C15.4298 34.3437 15.8616 34.6002 16.3227 34.7376L16.512 41.9948L16.594 45.1462C16.3296 45.2525 16.0781 45.3987 15.8468 45.5858L4.49908 33.2656C4.8896 32.867 5.17975 32.3933 5.35141 31.8735Z" fill="#47BCC4"/>
<path d="M8.87146 11.2161C8.93059 11.2185 8.989 11.2152 9.04765 11.215L15.4476 29.8817C15.377 29.9351 15.3079 29.9916 15.2414 30.0531C14.9522 30.3194 14.7295 30.6382 14.5779 30.9886L5.49149 30.1525C5.38039 29.4533 5.06712 28.8017 4.57646 28.2691C4.1087 27.761 3.51886 27.4082 2.86871 27.2303L8.12547 11.1067C8.36722 11.1677 8.6166 11.2059 8.87146 11.2161Z" fill="#47BCC4"/>
<path d="M19.8663 32.3842C19.9182 31.8971 19.8429 31.3988 19.636 30.9432L31.4274 20.0824C31.8644 20.3258 32.3548 20.4419 32.8445 20.43L39.6674 39.5759C39.4132 39.7156 39.1727 39.8837 38.9538 40.0849C38.7349 40.2866 38.548 40.5126 38.3878 40.7544L19.8663 32.3842Z" fill="#47BCC4"/>
<path d="M29.6351 5.18809C30.1751 5.77411 30.877 6.15462 31.6471 6.29528L31.6545 6.60736L31.8514 15.0574C31.5086 15.1783 31.1841 15.3685 30.9001 15.6301C30.8334 15.6914 30.7716 15.7555 30.7125 15.8215L24.5588 13.1291L12.6334 7.91196C12.6387 7.85355 12.6468 7.79561 12.6492 7.73649C12.6594 7.48973 12.6444 7.2456 12.6063 7.00694L28.7168 3.28389C28.825 3.99102 29.1397 4.65024 29.6351 5.18809Z" fill="#47BCC4"/>
<path d="M45.6342 17.1972C45.2973 17.5079 45.0295 17.8729 44.8338 18.2725L35.4873 17.1286C35.3924 16.6446 35.17 16.1794 34.8119 15.7908C34.465 15.4141 34.0361 15.1586 33.5779 15.0205L33.3747 6.3144L33.3719 6.19687C33.8847 6.03999 34.3608 5.77273 34.7668 5.3989C34.7683 5.39771 34.7695 5.39604 34.7709 5.39485L45.6385 17.1939C45.637 17.1951 45.6356 17.196 45.6342 17.1972Z" fill="#47BCC4"/>
<path d="M41.5632 39.1276C41.4888 39.1245 41.4149 39.1281 41.3408 39.1295L34.4712 19.8524C34.5327 19.8047 34.5932 19.7561 34.6514 19.7025C34.9232 19.4521 35.1323 19.1586 35.2801 18.8428L44.468 19.9671C44.4904 20.8454 44.8226 21.6768 45.4234 22.3291C45.8749 22.8195 46.4407 23.1645 47.0639 23.3478L42.2429 39.2208C42.0219 39.1696 41.795 39.1371 41.5632 39.1276Z" fill="#47BCC4"/>
<path d="M19.8569 45.8779C19.4309 45.4154 18.8895 45.1229 18.317 44.9994L18.0486 34.6964C18.389 34.5753 18.7109 34.3855 18.9929 34.1256C19.0511 34.072 19.1045 34.0155 19.157 33.9583L37.8054 42.3859C37.798 42.4593 37.7887 42.5328 37.7853 42.6074C37.7756 42.847 37.7894 43.0842 37.8251 43.3162L20.5474 47.1584C20.4301 46.6854 20.1962 46.2463 19.8569 45.8779Z" fill="#47BCC4"/>
<path d="M3.30673 29.4388C3.66316 29.8258 3.82909 30.3207 3.80907 30.8078C3.78904 31.2951 3.58305 31.7745 3.19634 32.131C2.42222 32.8441 1.21681 32.7945 0.503952 32.0206C0.147525 31.6334 -0.0184098 31.1387 0.00161683 30.6514C0.0216435 30.1641 0.227394 29.6846 0.614575 29.3282C1.38846 28.6151 2.59388 28.6647 3.30673 29.4388Z" fill="#47BCC4"/>
<path d="M10.9243 7.66554C10.9045 8.15285 10.6985 8.63254 10.3113 8.98896C9.53745 9.70182 8.33204 9.65223 7.61919 8.87834C7.26276 8.49116 7.09682 7.99645 7.11685 7.50914C7.13688 7.02206 7.34263 6.54237 7.72981 6.18595C8.5037 5.47309 9.70911 5.52245 10.422 6.29657C10.7786 6.68351 10.9443 7.17846 10.9243 7.66554Z" fill="#47BCC4"/>
<path d="M33.5973 4.12889C32.8232 4.84175 31.6178 4.7924 30.9049 4.01827C30.5485 3.63133 30.3828 3.13662 30.4026 2.64931C30.4226 2.16199 30.6286 1.68254 31.0156 1.32612C31.7895 0.613025 32.9949 0.662614 33.708 1.43674C34.0644 1.82368 34.2301 2.31863 34.2101 2.8057C34.19 3.29302 33.9843 3.77247 33.5973 4.12889Z" fill="#47BCC4"/>
<path d="M46.6933 21.1594C46.3369 20.7724 46.1709 20.2775 46.1909 19.7904C46.211 19.3031 46.417 18.8237 46.8039 18.467C47.5778 17.7541 48.7834 17.8037 49.4963 18.5776C49.8527 18.9646 50.0184 19.4595 49.9984 19.9468C49.9784 20.4339 49.7726 20.9136 49.3857 21.27C48.6116 21.9829 47.4061 21.9335 46.6933 21.1594Z" fill="#47BCC4"/>
<path d="M39.5104 42.6782C39.5304 42.1911 39.7362 41.7114 40.1234 41.3548C40.8973 40.6422 42.1027 40.6915 42.8155 41.4656C43.1722 41.8526 43.3381 42.3473 43.3181 42.8346C43.2981 43.3217 43.0918 43.8014 42.7049 44.158C41.931 44.8706 40.7258 44.8213 40.0127 44.0472C39.6563 43.6602 39.4904 43.1655 39.5104 42.6782Z" fill="#47BCC4"/>
<path d="M16.4028 46.4691C17.1769 45.7562 18.3823 45.8058 19.0949 46.5797C19.4516 46.9666 19.6173 47.4616 19.5973 47.9489C19.5772 48.436 19.3715 48.9157 18.9846 49.2718C18.2104 49.9849 17.005 49.9353 16.2922 49.1615C15.9357 48.7745 15.7698 48.2796 15.7898 47.7925C15.8099 47.3049 16.0156 46.8255 16.4028 46.4691Z" fill="#47BCC4"/>
</svg>
