<svg width="1181" height="274" viewBox="0 0 1181 274" fill="none" xmlns="http://www.w3.org/2000/svg">
<path d="M167.912 92.7401C167.884 93.0161 167.849 93.2894 167.837 93.5654C167.738 95.9628 168.202 98.3801 169.217 100.613L136.245 130.983L103.273 161.351C100.884 160.02 98.2089 159.372 95.5343 159.405L59.9943 55.7454C61.4969 54.9401 62.9196 53.9614 64.2089 52.7734C65.4969 51.5881 66.5903 50.2494 67.5169 48.8161L167.912 92.7401Z" fill="#47BCC4"/>
<path d="M29.928 173.656L80.6466 178.323C81.2386 180.921 82.4853 183.339 84.34 185.351C86.292 187.471 88.7066 188.905 91.2853 189.673L92.344 230.26L92.8026 247.884C91.324 248.479 89.9173 249.296 88.624 250.343L25.1613 181.441C27.3453 179.212 28.968 176.563 29.928 173.656Z" fill="#47BCC4"/>
<path d="M49.6141 58.1287C49.9448 58.1421 50.2715 58.1234 50.5995 58.1221L86.3915 162.517C85.9968 162.815 85.6101 163.131 85.2381 163.475C83.6208 164.965 82.3755 166.747 81.5275 168.707L30.7115 164.031C30.0901 160.121 28.3381 156.477 25.5941 153.498C22.9781 150.657 19.6795 148.683 16.0435 147.689L45.4421 57.5167C46.7941 57.8581 48.1888 58.0714 49.6141 58.1287Z" fill="#47BCC4"/>
<path d="M111.103 176.512C111.394 173.788 110.972 171.002 109.815 168.454L175.759 107.714C178.203 109.075 180.946 109.724 183.684 109.658L221.842 216.732C220.42 217.514 219.075 218.454 217.851 219.579C216.627 220.707 215.582 221.971 214.686 223.323L111.103 176.512Z" fill="#47BCC4"/>
<path d="M165.736 24.4165C168.756 27.6939 172.681 29.8219 176.988 30.6085L177.029 32.3539L178.131 79.6112C176.213 80.2872 174.399 81.3512 172.811 82.8139C172.437 83.1565 172.092 83.5152 171.761 83.8845L137.347 68.8272L70.6532 39.6499C70.6825 39.3232 70.7279 38.9992 70.7412 38.6685C70.7985 37.2885 70.7145 35.9232 70.5012 34.5885L160.6 13.7672C161.205 17.7219 162.965 21.4085 165.736 24.4165Z" fill="#47BCC4"/>
<path d="M255.211 91.578C253.327 93.3153 251.83 95.3566 250.735 97.5913L198.465 91.194C197.934 88.4873 196.69 85.886 194.687 83.7126C192.747 81.606 190.349 80.1766 187.786 79.4046L186.65 30.7153L186.634 30.058C189.502 29.1806 192.165 27.686 194.435 25.5953C194.443 25.5886 194.45 25.5793 194.458 25.5726L255.235 91.5593C255.227 91.566 255.219 91.5713 255.211 91.578Z" fill="#47BCC4"/>
<path d="M232.444 214.225C232.028 214.208 231.615 214.228 231.2 214.236L192.782 106.428C193.126 106.161 193.464 105.889 193.79 105.589C195.31 104.189 196.479 102.548 197.306 100.781L248.69 107.069C248.815 111.981 250.672 116.63 254.032 120.278C256.558 123.021 259.722 124.95 263.207 125.976L236.246 214.746C235.01 214.46 233.74 214.278 232.444 214.225Z" fill="#47BCC4"/>
<path d="M111.051 251.976C108.668 249.39 105.64 247.754 102.439 247.063L100.938 189.443C102.842 188.766 104.642 187.704 106.219 186.251C106.544 185.951 106.843 185.635 107.136 185.315L211.428 232.447C211.387 232.858 211.335 233.268 211.316 233.686C211.262 235.026 211.339 236.352 211.539 237.65L114.912 259.138C114.256 256.492 112.948 254.036 111.051 251.976Z" fill="#47BCC4"/>
<path d="M18.493 160.04C20.4864 162.204 21.4144 164.972 21.3024 167.696C21.1904 170.421 20.0384 173.102 17.8757 175.096C13.5464 179.084 6.80504 178.806 2.81838 174.478C0.825043 172.313 -0.102958 169.546 0.0090422 166.821C0.121042 164.096 1.27171 161.414 3.43704 159.421C7.76504 155.433 14.5064 155.71 18.493 160.04Z" fill="#47BCC4"/>
<path d="M61.0946 38.2719C60.984 40.9973 59.832 43.6799 57.6666 45.6733C53.3386 49.6599 46.5973 49.3826 42.6106 45.0546C40.6173 42.8893 39.6893 40.1226 39.8013 37.3973C39.9133 34.6733 41.064 31.9906 43.2293 29.9973C47.5573 26.0106 54.2986 26.2866 58.2853 30.6159C60.28 32.7799 61.2066 35.5479 61.0946 38.2719Z" fill="#47BCC4"/>
<path d="M187.895 18.4933C183.565 22.48 176.824 22.204 172.837 17.8747C170.844 15.7107 169.917 12.944 170.028 10.2187C170.14 7.49334 171.292 4.81201 173.456 2.81867C177.784 -1.16933 184.525 -0.891995 188.513 3.43734C190.507 5.60134 191.433 8.36934 191.321 11.0933C191.209 13.8187 190.059 16.5 187.895 18.4933Z" fill="#47BCC4"/>
<path d="M261.134 113.737C259.141 111.573 258.213 108.805 258.325 106.081C258.437 103.355 259.589 100.674 261.753 98.6795C266.081 94.6928 272.824 94.9701 276.81 99.2981C278.804 101.462 279.73 104.23 279.618 106.955C279.506 109.679 278.356 112.362 276.192 114.355C271.862 118.342 265.121 118.066 261.134 113.737Z" fill="#47BCC4"/>
<path d="M220.964 234.082C221.076 231.358 222.226 228.675 224.392 226.68C228.72 222.695 235.461 222.971 239.448 227.3C241.442 229.464 242.37 232.231 242.258 234.956C242.146 237.68 240.993 240.363 238.829 242.358C234.501 246.343 227.761 246.067 223.773 241.738C221.78 239.574 220.852 236.807 220.964 234.082Z" fill="#47BCC4"/>
<path d="M91.7333 255.282C96.0627 251.296 102.804 251.573 106.789 255.901C108.784 258.065 109.711 260.833 109.599 263.558C109.487 266.282 108.336 268.965 106.172 270.957C101.843 274.945 95.1013 274.668 91.1147 270.34C89.1213 268.176 88.1933 265.408 88.3053 262.684C88.4173 259.957 89.568 257.276 91.7333 255.282Z" fill="#47BCC4"/>
<path d="M324.685 132H305.736L334.609 48.3636H357.396L386.228 132H367.279L346.329 67.4759H345.676L324.685 132ZM323.501 99.1254H368.259V112.929H323.501V99.1254ZM399.745 132V48.3636H456.101V62.9428H417.427V82.8718H453.202V97.451H417.427V117.421H456.264V132H399.745ZM473.61 132V48.3636H506.607C512.923 48.3636 518.314 49.4935 522.779 51.7532C527.271 53.9857 530.688 57.1574 533.029 61.2685C535.398 65.3523 536.582 70.1575 536.582 75.6843C536.582 81.2383 535.384 86.0163 532.988 90.0185C530.592 93.9934 527.121 97.0426 522.574 99.1662C518.055 101.29 512.583 102.352 506.158 102.352H484.064V88.1399H503.299C506.675 88.1399 509.479 87.6771 511.712 86.7514C513.944 85.8258 515.605 84.4373 516.694 82.5859C517.81 80.7346 518.368 78.4341 518.368 75.6843C518.368 72.9073 517.81 70.5659 516.694 68.6602C515.605 66.7544 513.93 65.3114 511.671 64.3313C509.438 63.324 506.62 62.8203 503.217 62.8203H491.292V132H473.61ZM518.777 93.9389L539.563 132H520.042L499.705 93.9389H518.777ZM566.944 132H547.995L576.868 48.3636H599.655L628.487 132H609.538L588.588 67.4759H587.935L566.944 132ZM565.76 99.1254H610.518V112.929H565.76V99.1254ZM745.864 77.6445H727.977C727.651 75.3304 726.984 73.2749 725.976 71.478C724.969 69.6539 723.676 68.102 722.097 66.8224C720.518 65.5428 718.693 64.5627 716.624 63.8821C714.582 63.2015 712.364 62.8612 709.968 62.8612C705.639 62.8612 701.868 63.9366 698.656 66.0874C695.443 68.2109 692.952 71.3146 691.182 75.3984C689.413 79.455 688.528 84.3828 688.528 90.1818C688.528 96.1442 689.413 101.154 691.182 105.21C692.979 109.267 695.484 112.33 698.696 114.399C701.909 116.468 705.625 117.502 709.845 117.502C712.214 117.502 714.405 117.189 716.42 116.563C718.462 115.937 720.272 115.025 721.852 113.827C723.431 112.602 724.737 111.118 725.772 109.376C726.834 107.633 727.569 105.646 727.977 103.413L745.864 103.495C745.402 107.334 744.244 111.036 742.393 114.603C740.569 118.142 738.105 121.314 735.001 124.118C731.925 126.895 728.25 129.1 723.975 130.734C719.728 132.34 714.923 133.143 709.559 133.143C702.1 133.143 695.429 131.455 689.549 128.08C683.695 124.704 679.067 119.817 675.664 113.419C672.288 107.021 670.6 99.2751 670.6 90.1818C670.6 81.0613 672.315 73.3021 675.745 66.9041C679.176 60.5062 683.831 55.6328 689.712 52.2841C695.593 48.9081 702.208 47.2202 709.559 47.2202C714.405 47.2202 718.898 47.9008 723.036 49.2621C727.201 50.6233 730.89 52.6108 734.103 55.2244C737.316 57.8108 739.929 60.9826 741.944 64.7397C743.986 68.4968 745.293 72.7984 745.864 77.6445ZM774.838 132H755.889L784.762 48.3636H807.549L836.381 132H817.432L796.482 67.4759H795.829L774.838 132ZM773.654 99.1254H818.412V112.929H773.654V99.1254ZM849.898 132V48.3636H882.895C889.238 48.3636 894.643 49.5752 899.108 51.9982C903.573 54.3941 906.976 57.7292 909.317 62.0035C911.686 66.2507 912.87 71.1513 912.87 76.7053C912.87 82.2592 911.672 87.1598 909.276 91.407C906.88 95.6541 903.409 98.962 898.863 101.331C894.343 103.699 888.871 104.884 882.446 104.884H861.414V90.7127H879.587C882.99 90.7127 885.794 90.1274 888 88.9567C890.232 87.7588 891.893 86.1116 892.982 84.0153C894.098 81.8917 894.656 79.455 894.656 76.7053C894.656 73.9283 894.098 71.5052 892.982 69.4361C891.893 67.3397 890.232 65.7198 888 64.5763C885.767 63.4057 882.936 62.8203 879.505 62.8203H867.581V132H849.898ZM945.489 48.3636V132H927.806V48.3636H945.489ZM960.302 62.9428V48.3636H1028.99V62.9428H1003.39V132H985.907V62.9428H960.302ZM1047.95 132H1029L1057.87 48.3636H1080.66L1109.49 132H1090.54L1069.59 67.4759H1068.94L1047.95 132ZM1046.77 99.1254H1091.52V112.929H1046.77V99.1254ZM1123.01 132V48.3636H1140.69V117.421H1176.55V132H1123.01Z" fill="#323041"/>
<path d="M305.114 179.625V175.091H332.131V179.625H321.239V210H315.989V179.625H305.114ZM347.588 194.455V210H342.492V175.091H347.52V188.08H347.844C348.458 186.67 349.395 185.551 350.657 184.722C351.918 183.892 353.566 183.477 355.6 183.477C357.395 183.477 358.963 183.847 360.304 184.585C361.657 185.324 362.702 186.426 363.441 187.892C364.191 189.347 364.566 191.165 364.566 193.347V210H359.469V193.96C359.469 192.04 358.975 190.551 357.986 189.494C356.997 188.426 355.622 187.892 353.861 187.892C352.657 187.892 351.577 188.148 350.622 188.659C349.679 189.17 348.935 189.92 348.389 190.909C347.855 191.886 347.588 193.068 347.588 194.455ZM376.167 210V183.818H381.263V210H376.167ZM378.741 179.778C377.854 179.778 377.093 179.483 376.457 178.892C375.832 178.29 375.519 177.574 375.519 176.744C375.519 175.903 375.832 175.187 376.457 174.597C377.093 173.994 377.854 173.693 378.741 173.693C379.627 173.693 380.383 173.994 381.008 174.597C381.644 175.187 381.962 175.903 381.962 176.744C381.962 177.574 381.644 178.29 381.008 178.892C380.383 179.483 379.627 179.778 378.741 179.778ZM398.016 194.455V210H392.92V183.818H397.812V188.08H398.136C398.738 186.693 399.681 185.58 400.965 184.739C402.261 183.898 403.891 183.477 405.857 183.477C407.641 183.477 409.204 183.852 410.545 184.602C411.886 185.341 412.926 186.443 413.664 187.909C414.403 189.375 414.772 191.187 414.772 193.347V210H409.676V193.96C409.676 192.062 409.181 190.58 408.193 189.511C407.204 188.432 405.846 187.892 404.119 187.892C402.937 187.892 401.886 188.148 400.965 188.659C400.056 189.17 399.335 189.92 398.801 190.909C398.278 191.886 398.016 193.068 398.016 194.455ZM431.095 201.119L431.061 194.898H431.947L442.379 183.818H448.481L436.584 196.432H435.782L431.095 201.119ZM426.407 210V175.091H431.504V210H426.407ZM442.941 210L433.566 197.557L437.078 193.994L449.197 210H442.941ZM464.557 205.227L464.301 207.085C464.131 208.449 463.841 209.869 463.432 211.347C463.034 212.835 462.619 214.216 462.188 215.489C461.767 216.761 461.42 217.773 461.148 218.523H457.534C457.682 217.818 457.886 216.864 458.148 215.659C458.409 214.466 458.665 213.131 458.915 211.653C459.165 210.176 459.352 208.67 459.477 207.136L459.648 205.227H464.557ZM500.739 210L491.057 175.091H496.597L503.398 202.125H503.722L510.796 175.091H516.285L523.359 202.142H523.682L530.466 175.091H536.023L526.324 210H521.023L513.677 183.852H513.404L506.057 210H500.739ZM553.923 210.528C551.343 210.528 549.122 209.977 547.258 208.875C545.406 207.761 543.974 206.199 542.962 204.188C541.962 202.165 541.462 199.795 541.462 197.08C541.462 194.398 541.962 192.034 542.962 189.989C543.974 187.943 545.383 186.347 547.19 185.199C549.008 184.051 551.133 183.477 553.565 183.477C555.042 183.477 556.474 183.722 557.86 184.21C559.247 184.699 560.491 185.466 561.593 186.511C562.695 187.557 563.565 188.915 564.201 190.585C564.837 192.244 565.156 194.261 565.156 196.636V198.443H544.343V194.625H560.161C560.161 193.284 559.889 192.097 559.343 191.062C558.798 190.017 558.031 189.193 557.042 188.591C556.065 187.989 554.917 187.688 553.599 187.688C552.167 187.688 550.917 188.04 549.849 188.744C548.792 189.437 547.974 190.347 547.394 191.472C546.826 192.585 546.542 193.795 546.542 195.102V198.085C546.542 199.835 546.849 201.324 547.462 202.551C548.087 203.778 548.957 204.716 550.07 205.364C551.184 206 552.485 206.318 553.974 206.318C554.94 206.318 555.82 206.182 556.616 205.909C557.411 205.625 558.099 205.205 558.678 204.648C559.258 204.091 559.701 203.403 560.008 202.585L564.832 203.455C564.445 204.875 563.752 206.119 562.752 207.188C561.764 208.244 560.519 209.068 559.019 209.659C557.531 210.239 555.832 210.528 553.923 210.528ZM596.472 210H590.881L603.443 175.091H609.528L622.091 210H616.5L606.631 181.432H606.358L596.472 210ZM597.409 196.33H615.545V200.761H597.409V196.33ZM642.13 210.528C639.595 210.528 637.414 209.955 635.584 208.807C633.766 207.648 632.368 206.051 631.391 204.017C630.414 201.983 629.925 199.653 629.925 197.028C629.925 194.369 630.425 192.023 631.425 189.989C632.425 187.943 633.834 186.347 635.652 185.199C637.47 184.051 639.612 183.477 642.078 183.477C644.067 183.477 645.84 183.847 647.397 184.585C648.953 185.312 650.209 186.335 651.164 187.653C652.13 188.972 652.703 190.511 652.885 192.273H647.925C647.652 191.045 647.027 189.989 646.05 189.102C645.084 188.216 643.789 187.773 642.164 187.773C640.743 187.773 639.499 188.148 638.431 188.898C637.374 189.636 636.55 190.693 635.959 192.068C635.368 193.432 635.073 195.045 635.073 196.909C635.073 198.818 635.362 200.466 635.942 201.852C636.522 203.239 637.34 204.312 638.397 205.074C639.465 205.835 640.72 206.216 642.164 206.216C643.13 206.216 644.005 206.04 644.789 205.688C645.584 205.324 646.249 204.807 646.783 204.136C647.328 203.466 647.709 202.659 647.925 201.716H652.885C652.703 203.409 652.152 204.92 651.232 206.25C650.311 207.58 649.078 208.625 647.533 209.386C645.999 210.148 644.198 210.528 642.13 210.528ZM675.357 183.818V187.909H661.056V183.818H675.357ZM664.891 177.545H669.988V202.312C669.988 203.301 670.136 204.045 670.431 204.545C670.726 205.034 671.107 205.369 671.573 205.551C672.05 205.722 672.567 205.807 673.124 205.807C673.533 205.807 673.891 205.778 674.198 205.722C674.505 205.665 674.743 205.619 674.914 205.585L675.834 209.795C675.539 209.909 675.118 210.023 674.573 210.136C674.028 210.261 673.346 210.33 672.528 210.341C671.187 210.364 669.937 210.125 668.778 209.625C667.618 209.125 666.681 208.352 665.965 207.307C665.249 206.261 664.891 204.949 664.891 203.369V177.545Z" fill="black"/>
</svg>
