<svg width="1081" height="274" viewBox="0 0 1081 274" fill="none" xmlns="http://www.w3.org/2000/svg">
<path d="M167.912 92.7401C167.884 93.0161 167.849 93.2894 167.837 93.5654C167.738 95.9628 168.202 98.3801 169.217 100.613L136.245 130.983L103.273 161.351C100.884 160.02 98.2089 159.372 95.5343 159.405L59.9943 55.7454C61.4969 54.9401 62.9196 53.9614 64.2089 52.7734C65.4969 51.5881 66.5903 50.2494 67.5169 48.8161L167.912 92.7401Z" fill="#47BCC4"/>
<path d="M29.928 173.656L80.6466 178.323C81.2386 180.921 82.4853 183.339 84.34 185.351C86.292 187.471 88.7066 188.905 91.2853 189.673L92.344 230.26L92.8026 247.884C91.324 248.479 89.9173 249.296 88.624 250.343L25.1613 181.441C27.3453 179.212 28.968 176.563 29.928 173.656Z" fill="#47BCC4"/>
<path d="M49.6141 58.1287C49.9448 58.1421 50.2715 58.1234 50.5995 58.1221L86.3915 162.517C85.9968 162.815 85.6101 163.131 85.2381 163.475C83.6208 164.965 82.3755 166.747 81.5275 168.707L30.7115 164.031C30.0901 160.121 28.3381 156.477 25.5941 153.498C22.9781 150.657 19.6795 148.683 16.0435 147.689L45.4421 57.5167C46.7941 57.8581 48.1888 58.0714 49.6141 58.1287Z" fill="#47BCC4"/>
<path d="M111.103 176.512C111.394 173.788 110.972 171.002 109.815 168.454L175.759 107.714C178.203 109.075 180.946 109.724 183.684 109.658L221.842 216.732C220.42 217.514 219.075 218.454 217.851 219.579C216.627 220.707 215.582 221.971 214.686 223.323L111.103 176.512Z" fill="#47BCC4"/>
<path d="M165.736 24.4165C168.756 27.6939 172.681 29.8219 176.988 30.6085L177.029 32.3539L178.131 79.6112C176.213 80.2872 174.399 81.3512 172.811 82.8139C172.437 83.1565 172.092 83.5152 171.761 83.8845L137.347 68.8272L70.6532 39.6499C70.6825 39.3232 70.7279 38.9992 70.7412 38.6685C70.7985 37.2885 70.7145 35.9232 70.5012 34.5885L160.6 13.7672C161.205 17.7219 162.965 21.4085 165.736 24.4165Z" fill="#47BCC4"/>
<path d="M255.211 91.578C253.327 93.3153 251.83 95.3566 250.735 97.5913L198.465 91.194C197.934 88.4873 196.69 85.886 194.687 83.7126C192.747 81.606 190.349 80.1766 187.786 79.4046L186.65 30.7153L186.634 30.058C189.502 29.1806 192.165 27.686 194.435 25.5953C194.443 25.5886 194.45 25.5793 194.458 25.5726L255.235 91.5593C255.227 91.566 255.219 91.5713 255.211 91.578Z" fill="#47BCC4"/>
<path d="M232.444 214.225C232.028 214.208 231.615 214.228 231.2 214.236L192.782 106.428C193.126 106.161 193.464 105.889 193.79 105.589C195.31 104.189 196.479 102.548 197.306 100.781L248.69 107.069C248.815 111.981 250.672 116.63 254.032 120.278C256.558 123.021 259.722 124.95 263.207 125.976L236.246 214.746C235.01 214.46 233.74 214.278 232.444 214.225Z" fill="#47BCC4"/>
<path d="M111.051 251.976C108.668 249.39 105.64 247.754 102.439 247.063L100.938 189.443C102.842 188.766 104.642 187.704 106.219 186.251C106.544 185.951 106.843 185.635 107.136 185.315L211.428 232.447C211.387 232.858 211.335 233.268 211.316 233.686C211.262 235.026 211.339 236.352 211.539 237.65L114.912 259.138C114.256 256.492 112.948 254.036 111.051 251.976Z" fill="#47BCC4"/>
<path d="M18.493 160.04C20.4864 162.204 21.4144 164.972 21.3024 167.696C21.1904 170.421 20.0384 173.102 17.8757 175.096C13.5464 179.084 6.80504 178.806 2.81838 174.478C0.825043 172.313 -0.102958 169.546 0.0090422 166.821C0.121042 164.096 1.27171 161.414 3.43704 159.421C7.76504 155.433 14.5064 155.71 18.493 160.04Z" fill="#47BCC4"/>
<path d="M61.0946 38.2719C60.984 40.9973 59.832 43.6799 57.6666 45.6733C53.3386 49.6599 46.5973 49.3826 42.6106 45.0546C40.6173 42.8893 39.6893 40.1226 39.8013 37.3973C39.9133 34.6733 41.064 31.9906 43.2293 29.9973C47.5573 26.0106 54.2986 26.2866 58.2853 30.6159C60.28 32.7799 61.2066 35.5479 61.0946 38.2719Z" fill="#47BCC4"/>
<path d="M187.895 18.4933C183.565 22.48 176.824 22.204 172.837 17.8747C170.844 15.7107 169.917 12.944 170.028 10.2187C170.14 7.49334 171.292 4.81201 173.456 2.81867C177.784 -1.16933 184.525 -0.891995 188.513 3.43734C190.507 5.60134 191.433 8.36934 191.321 11.0933C191.209 13.8187 190.059 16.5 187.895 18.4933Z" fill="#47BCC4"/>
<path d="M261.134 113.737C259.141 111.573 258.213 108.805 258.325 106.081C258.437 103.355 259.589 100.674 261.753 98.6795C266.081 94.6928 272.824 94.9701 276.81 99.2981C278.804 101.462 279.73 104.23 279.618 106.955C279.506 109.679 278.356 112.362 276.192 114.355C271.862 118.342 265.121 118.066 261.134 113.737Z" fill="#47BCC4"/>
<path d="M220.964 234.082C221.076 231.358 222.226 228.675 224.392 226.68C228.72 222.695 235.461 222.971 239.448 227.3C241.442 229.464 242.37 232.231 242.258 234.956C242.146 237.68 240.993 240.363 238.829 242.358C234.501 246.343 227.761 246.067 223.773 241.738C221.78 239.574 220.852 236.807 220.964 234.082Z" fill="#47BCC4"/>
<path d="M91.7333 255.282C96.0627 251.296 102.804 251.573 106.789 255.901C108.784 258.065 109.711 260.833 109.599 263.558C109.487 266.282 108.336 268.965 106.172 270.957C101.843 274.945 95.1013 274.668 91.1147 270.34C89.1213 268.176 88.1933 265.408 88.3053 262.684C88.4173 259.957 89.568 257.276 91.7333 255.282Z" fill="#47BCC4"/>
<path d="M319.782 137H305.118L327.462 72.2727H345.098L367.411 137H352.746L336.533 87.0639H336.027L319.782 137ZM318.866 111.558H353.505V122.24H318.866V111.558ZM386.772 137V72.2727H430.387V83.5558H400.457V98.979H428.143V110.262H400.457V125.717H430.513V137H386.772ZM452.837 137V72.2727H478.374C483.262 72.2727 487.434 73.1471 490.89 74.896C494.366 76.6237 497.01 79.0784 498.822 82.2599C500.656 85.4205 501.572 89.1393 501.572 93.4165C501.572 97.7148 500.645 101.413 498.791 104.51C496.937 107.586 494.25 109.946 490.732 111.589C487.234 113.233 482.999 114.055 478.026 114.055H460.928V103.056H475.814C478.427 103.056 480.597 102.698 482.325 101.982C484.052 101.265 485.338 100.191 486.18 98.7578C487.044 97.325 487.476 95.5446 487.476 93.4165C487.476 91.2674 487.044 89.4554 486.18 87.9805C485.338 86.5056 484.042 85.3888 482.293 84.6303C480.565 83.8507 478.384 83.4609 475.751 83.4609H466.522V137H452.837ZM487.792 107.544L503.879 137H488.772L473.033 107.544H487.792ZM533.97 137H519.305L541.65 72.2727H559.286L581.599 137H566.934L550.721 87.0639H550.215L533.97 137ZM533.053 111.558H567.693V122.24H533.053V111.558ZM690.238 94.9336H676.395C676.143 93.1426 675.626 91.5518 674.847 90.1612C674.067 88.7495 673.066 87.5485 671.844 86.5582C670.622 85.5679 669.211 84.8094 667.609 84.2827C666.029 83.7559 664.312 83.4925 662.458 83.4925C659.107 83.4925 656.189 84.3248 653.703 85.9893C651.217 87.6328 649.289 90.0348 647.919 93.1953C646.55 96.3348 645.865 100.148 645.865 104.636C645.865 109.251 646.55 113.128 647.919 116.267C649.31 119.406 651.248 121.777 653.735 123.378C656.221 124.98 659.097 125.78 662.363 125.78C664.196 125.78 665.892 125.538 667.451 125.053C669.031 124.569 670.433 123.863 671.655 122.936C672.877 121.988 673.888 120.839 674.689 119.491C675.511 118.142 676.079 116.604 676.395 114.876L690.238 114.94C689.88 117.911 688.985 120.776 687.552 123.536C686.14 126.275 684.234 128.73 681.832 130.9C679.451 133.049 676.606 134.756 673.298 136.02C670.011 137.263 666.292 137.885 662.142 137.885C656.368 137.885 651.206 136.579 646.655 133.966C642.125 131.353 638.543 127.571 635.909 122.62C633.297 117.668 631.99 111.674 631.99 104.636C631.99 97.5779 633.318 91.5729 635.973 86.6214C638.627 81.67 642.23 77.8984 646.781 75.3068C651.333 72.6941 656.453 71.3878 662.142 71.3878C665.892 71.3878 669.369 71.9145 672.571 72.968C675.795 74.0215 678.65 75.5597 681.136 77.5824C683.622 79.584 685.645 82.0387 687.204 84.9464C688.785 87.854 689.796 91.1831 690.238 94.9336ZM721.562 137H706.897L729.242 72.2727H746.877L769.191 137H754.526L738.312 87.0639H737.807L721.562 137ZM720.645 111.558H755.284V122.24H720.645V111.558ZM788.551 137V72.2727H814.088C818.998 72.2727 823.18 73.2103 826.635 75.0856C830.091 76.9397 832.725 79.5208 834.537 82.8288C836.37 86.1158 837.286 89.9084 837.286 94.2067C837.286 98.505 836.359 102.298 834.505 105.585C832.651 108.871 829.964 111.431 826.446 113.265C822.948 115.098 818.713 116.014 813.741 116.014H797.464V105.047H811.528C814.162 105.047 816.332 104.594 818.039 103.688C819.767 102.761 821.052 101.486 821.895 99.864C822.759 98.2205 823.19 96.3348 823.19 94.2067C823.19 92.0575 822.759 90.1823 821.895 88.581C821.052 86.9586 819.767 85.7049 818.039 84.82C816.311 83.9139 814.12 83.4609 811.465 83.4609H802.236V137H788.551ZM871.43 72.2727V137H857.745V72.2727H871.43ZM891.794 83.5558V72.2727H944.954V83.5558H925.138V137H911.611V83.5558H891.794ZM968.526 137H953.862L976.206 72.2727H993.842L1016.16 137H1001.49L985.277 87.0639H984.771L968.526 137ZM967.61 111.558H1002.25V122.24H967.61V111.558ZM1035.52 137V72.2727H1049.2V125.717H1076.95V137H1035.52Z" fill="#323041"/>
<path d="M304.849 166.422V162.455H328.489V166.422H318.959V193H314.365V166.422H304.849ZM342.015 179.398V193H337.555V162.455H341.955V173.82H342.239C342.775 172.587 343.596 171.607 344.699 170.881C345.803 170.156 347.245 169.793 349.025 169.793C350.596 169.793 351.968 170.116 353.141 170.762C354.324 171.408 355.239 172.373 355.886 173.656C356.542 174.928 356.87 176.519 356.87 178.428V193H352.41V178.965C352.41 177.285 351.978 175.982 351.113 175.058C350.248 174.123 349.045 173.656 347.503 173.656C346.449 173.656 345.505 173.879 344.67 174.327C343.844 174.774 343.193 175.43 342.716 176.295C342.248 177.151 342.015 178.185 342.015 179.398ZM367.021 193V170.091H371.48V193H367.021ZM369.273 166.556C368.497 166.556 367.831 166.298 367.274 165.781C366.728 165.254 366.454 164.627 366.454 163.901C366.454 163.165 366.728 162.539 367.274 162.022C367.831 161.495 368.497 161.232 369.273 161.232C370.049 161.232 370.71 161.495 371.257 162.022C371.814 162.539 372.092 163.165 372.092 163.901C372.092 164.627 371.814 165.254 371.257 165.781C370.71 166.298 370.049 166.556 369.273 166.556ZM386.139 179.398V193H381.68V170.091H385.96V173.82H386.244C386.771 172.607 387.596 171.632 388.72 170.896C389.853 170.161 391.28 169.793 393 169.793C394.561 169.793 395.928 170.121 397.102 170.777C398.275 171.423 399.185 172.388 399.831 173.67C400.477 174.953 400.801 176.539 400.801 178.428V193H396.341V178.965C396.341 177.305 395.909 176.007 395.044 175.072C394.178 174.128 392.99 173.656 391.479 173.656C390.445 173.656 389.525 173.879 388.72 174.327C387.924 174.774 387.293 175.43 386.825 176.295C386.368 177.151 386.139 178.185 386.139 179.398ZM415.083 185.229L415.053 179.786H415.829L424.957 170.091H430.296L419.886 181.128H419.185L415.083 185.229ZM410.981 193V162.455H415.441V193H410.981ZM425.449 193L417.246 182.112L420.318 178.995L430.923 193H425.449ZM444.362 188.824L444.138 190.45C443.989 191.643 443.736 192.886 443.378 194.178C443.03 195.481 442.667 196.689 442.289 197.803C441.921 198.916 441.618 199.801 441.379 200.457H438.217C438.347 199.841 438.526 199.006 438.754 197.952C438.983 196.908 439.207 195.739 439.425 194.447C439.644 193.154 439.808 191.837 439.918 190.494L440.067 188.824H444.362ZM476.022 193L467.55 162.455H472.398L478.349 186.109H478.632L484.822 162.455H489.624L495.814 186.124H496.097L502.033 162.455H506.895L498.409 193H493.77L487.342 170.121H487.103L480.675 193H476.022ZM522.557 193.462C520.3 193.462 518.356 192.98 516.726 192.016C515.105 191.041 513.852 189.674 512.967 187.914C512.092 186.144 511.655 184.071 511.655 181.695C511.655 179.348 512.092 177.28 512.967 175.49C513.852 173.7 515.085 172.303 516.666 171.299C518.257 170.295 520.116 169.793 522.244 169.793C523.537 169.793 524.79 170.006 526.003 170.434C527.216 170.862 528.305 171.533 529.269 172.447C530.234 173.362 530.994 174.55 531.551 176.012C532.108 177.464 532.386 179.229 532.386 181.307V182.888H514.175V179.547H528.016C528.016 178.374 527.778 177.335 527.3 176.43C526.823 175.515 526.152 174.794 525.287 174.267C524.432 173.74 523.427 173.477 522.274 173.477C521.021 173.477 519.927 173.785 518.993 174.401C518.068 175.008 517.352 175.803 516.845 176.788C516.348 177.762 516.099 178.821 516.099 179.964V182.575C516.099 184.106 516.368 185.408 516.905 186.482C517.452 187.556 518.212 188.376 519.187 188.943C520.161 189.5 521.3 189.778 522.602 189.778C523.447 189.778 524.218 189.659 524.914 189.42C525.61 189.172 526.212 188.804 526.719 188.317C527.226 187.83 527.614 187.228 527.882 186.512L532.103 187.273C531.765 188.516 531.158 189.604 530.283 190.539C529.418 191.464 528.329 192.185 527.017 192.702C525.714 193.209 524.228 193.462 522.557 193.462ZM559.788 193H554.896L565.888 162.455H571.212L582.205 193H577.312L568.677 168.003H568.438L559.788 193ZM560.608 181.038H576.477V184.916H560.608V181.038ZM599.738 193.462C597.521 193.462 595.612 192.96 594.011 191.956C592.42 190.942 591.197 189.545 590.342 187.765C589.487 185.985 589.059 183.947 589.059 181.65C589.059 179.323 589.497 177.27 590.372 175.49C591.247 173.7 592.48 172.303 594.071 171.299C595.662 170.295 597.536 169.793 599.694 169.793C601.434 169.793 602.985 170.116 604.347 170.762C605.709 171.398 606.808 172.293 607.643 173.447C608.488 174.6 608.99 175.947 609.15 177.489H604.809C604.571 176.415 604.024 175.49 603.169 174.714C602.324 173.939 601.19 173.551 599.768 173.551C598.525 173.551 597.437 173.879 596.502 174.536C595.577 175.182 594.856 176.107 594.339 177.31C593.822 178.503 593.564 179.915 593.564 181.545C593.564 183.216 593.817 184.658 594.324 185.871C594.831 187.084 595.547 188.023 596.472 188.69C597.407 189.356 598.505 189.689 599.768 189.689C600.613 189.689 601.379 189.535 602.065 189.227C602.761 188.908 603.343 188.456 603.81 187.869C604.287 187.283 604.62 186.577 604.809 185.751H609.15C608.99 187.233 608.508 188.555 607.703 189.719C606.897 190.882 605.819 191.797 604.466 192.463C603.124 193.129 601.548 193.462 599.738 193.462ZM628.812 170.091V173.67H616.299V170.091H628.812ZM619.655 164.602H624.114V186.273C624.114 187.138 624.244 187.79 624.502 188.227C624.761 188.655 625.094 188.948 625.501 189.107C625.919 189.256 626.371 189.331 626.859 189.331C627.217 189.331 627.53 189.306 627.798 189.256C628.067 189.207 628.276 189.167 628.425 189.137L629.23 192.821C628.972 192.92 628.604 193.02 628.126 193.119C627.649 193.229 627.053 193.288 626.337 193.298C625.163 193.318 624.07 193.109 623.055 192.672C622.041 192.234 621.221 191.558 620.594 190.643C619.968 189.729 619.655 188.58 619.655 187.198V164.602Z" fill="black"/>
</svg>
