<svg width="99" height="107" viewBox="0 0 99 107" fill="none" xmlns="http://www.w3.org/2000/svg">
<g clip-path="url(#clip0_2_257)">
<path opacity="0.2" d="M83.3175 85.7723C82.2608 92.4083 78.924 98.4059 74.0714 102.143C69.1335 105.954 62.6817 107.341 55.9946 104.673C45.5458 100.499 32.7085 92.1432 20.5251 75.6212C8.49048 59.3063 3.31695 44.7793 1.29604 33.6992C0.0154987 26.7002 2.5012 20.6438 7.06589 16.5166C11.5641 12.4494 17.969 10.3328 24.6386 10.6682C26.2976 10.7513 27.9179 11.1944 29.3877 11.9669C30.8575 12.7394 32.1416 13.8229 33.1515 15.1426L40.5549 24.8259C42.8343 27.8041 43.9664 31.5078 43.7443 35.2601C43.5223 39.0125 41.9608 42.5628 39.3453 45.2623L36.2364 48.4673C34.7325 50.0234 34.3253 51.8732 34.862 53.249C36.6485 57.868 39.9686 62.0481 44.1733 65.1015C45.4982 66.066 47.522 66.1307 49.4407 65.0324L53.5302 62.6917C56.8341 60.7984 60.7104 60.1766 64.4323 60.943C68.1541 61.7094 71.4657 63.8113 73.746 66.8545L81.0647 76.6241C82.0334 77.9181 82.732 79.3948 83.1191 80.9664C83.5061 82.538 83.5736 84.1724 83.3175 85.7723ZM58.3117 98.8517C62.8004 100.643 66.941 99.7492 70.2708 97.1845C73.6917 94.5498 76.3144 90.0725 77.1518 84.8012C77.2757 84.0293 77.2433 83.2407 77.0566 82.4824C76.87 81.7241 76.5328 81.0116 76.0653 80.3874L68.7441 70.6235C67.3766 68.7981 65.3907 67.537 63.1585 67.0765C60.9263 66.616 58.6012 66.9878 56.6189 68.1222L52.5294 70.4629C48.9957 72.4901 44.2517 72.9068 40.4989 70.177C35.4156 66.4803 31.2897 61.361 29.0342 55.5248C27.388 51.2592 29.0551 46.9032 31.7621 44.1119L34.8709 40.9069C36.4414 39.2875 37.3794 37.157 37.5134 34.9051C37.6473 32.6531 36.9683 30.4301 35.6005 28.6425L28.1889 18.9625C27.2582 17.7447 25.8394 16.999 24.3101 16.9217C19.091 16.657 14.3656 18.3429 11.2461 21.1615C8.19308 23.9201 6.57039 27.8248 7.43981 32.5544C9.29288 42.6966 14.0804 56.3352 25.549 71.8957C37.0611 87.4817 48.9593 95.1143 58.3142 98.8459L58.3117 98.8517ZM98.9731 50.1753C99.0562 51.0011 98.8086 51.827 98.2847 52.4714C97.7608 53.1157 97.0036 53.5257 96.1795 53.6112C95.3555 53.6966 94.5322 53.4505 93.8907 52.9269C93.2492 52.4034 92.8422 51.6454 92.759 50.8195L92.4809 48.0823C91.6242 39.5364 88.7156 31.3307 84.0036 24.1665C79.2917 17.0023 72.9164 11.0927 65.4228 6.94259L63.6953 5.98247C63.3179 5.79466 62.9826 5.53209 62.7096 5.21058C62.4366 4.88907 62.2315 4.51529 62.1068 4.11178C61.982 3.70828 61.9401 3.28342 61.9836 2.86282C62.0272 2.44222 62.1552 2.03461 62.3601 1.66456C62.5649 1.29451 62.8423 0.969702 63.1756 0.709726C63.5088 0.44975 63.8909 0.259996 64.2989 0.151903C64.7069 0.0438104 65.1323 0.0196251 65.5494 0.0808011C65.9665 0.141978 66.3668 0.28725 66.7259 0.507855L68.4502 1.45976C76.8276 6.09794 83.9547 12.7036 89.2222 20.7119C94.4898 28.7203 97.7411 37.8931 98.6982 47.4463L98.9731 50.1753ZM80.7052 50.319C81.5258 50.2058 82.2687 49.7706 82.7706 49.1092C83.2725 48.4478 83.4923 47.6143 83.3817 46.792L83.2638 45.8961C82.4835 40.0581 80.4474 34.4629 77.2962 29.4971C74.1449 24.5314 69.9538 20.3135 65.0124 17.1352L63.5899 16.2243C63.2454 15.9906 62.8577 15.8284 62.4494 15.7473C62.0412 15.6662 61.6206 15.6678 61.2126 15.752C60.8045 15.8362 60.4172 16.0013 60.0734 16.2377C59.7296 16.474 59.4362 16.7768 59.2105 17.1281C58.9848 17.4795 58.8314 17.8724 58.7593 18.2837C58.6872 18.6949 58.6979 19.1163 58.7907 19.523C58.8834 19.9297 59.0565 20.3134 59.2995 20.6517C59.5426 20.99 59.8509 21.2759 60.2062 21.4927L61.6263 22.4094C65.8071 25.0972 69.3537 28.6642 72.021 32.8641C74.6882 37.064 76.4125 41.7967 77.0748 46.7351L77.1984 47.6335C77.2526 48.0409 77.3864 48.4334 77.5921 48.7886C77.7979 49.1438 78.0715 49.4547 78.3974 49.7036C78.7233 49.9524 79.095 50.1343 79.4914 50.239C79.8878 50.3436 80.3011 50.3688 80.7077 50.3133L80.7052 50.319Z" fill="#47BCC4"/>
</g>
<defs>
<clipPath id="clip0_2_257">
<rect width="99" height="107" fill="white"/>
</clipPath>
</defs>
</svg>
