<svg width="40" height="40" viewBox="0 0 40 40" fill="none" xmlns="http://www.w3.org/2000/svg">
<g clip-path="url(#clip0_2_271)">
<path fill-rule="evenodd" clip-rule="evenodd" d="M20.4329 0.111502C19.6941 0.374874 19.1944 1.07608 19.1913 1.85408C19.1903 2.10199 19.2291 2.40848 19.2775 2.53513C19.3654 2.76506 19.3606 2.77046 16.3264 5.80131L13.2873 8.83723L12.8769 8.63136C11.6687 8.02524 10.2036 8.27463 9.22403 9.25319C8.24441 10.2316 7.99476 11.6952 8.60145 12.9019L8.80747 13.3116L5.77344 16.3432C3.22057 18.894 2.71445 19.3654 2.58204 19.3167C2.49546 19.2848 2.15774 19.2587 1.83159 19.2587C1.30803 19.2587 1.19384 19.2864 0.856039 19.4951C0.619133 19.6415 0.383243 19.8773 0.236672 20.1141C0.0277655 20.4517 0 20.5659 0 21.0886C0 21.5973 0.0310505 21.7335 0.220325 22.0551C1.07785 23.5124 3.20062 23.2439 3.71597 21.613C3.80443 21.3331 3.78918 20.8729 3.67553 20.3916C3.63471 20.2188 3.83391 19.9935 5.40325 18.4384C6.37888 17.4715 7.1492 16.7508 7.1151 16.8367C7.081 16.9227 6.86638 17.5379 6.63823 18.204C5.89294 20.3796 5.6228 22.2171 5.69186 24.6412C5.79166 28.1478 6.82712 31.4088 8.75655 34.2937L9.32547 35.1442L8.8217 35.6394C8.22807 36.2229 8.0621 36.4998 8.13358 36.7875C8.19647 37.0406 10.9184 39.7975 11.2345 39.9283C11.3559 39.9786 11.535 39.9995 11.6327 39.9749C11.7303 39.9502 12.4876 39.2498 13.3157 38.4184C14.6878 37.0408 14.8213 36.8828 14.8213 36.6371C14.8213 36.3908 14.6875 36.2339 13.2759 34.8252C11.4287 32.9816 11.495 33.0095 10.7192 33.7536L10.2284 34.2244L9.7705 33.5388C8.49282 31.6257 7.57311 29.3171 7.14748 26.9544C6.91065 25.6399 6.85934 23.3404 7.03595 21.9542C7.35021 19.4869 8.23487 16.9871 9.50911 14.9661L9.92012 14.3143L10.2785 14.4791C10.5694 14.6129 10.7918 14.6444 11.4582 14.6465C12.2193 14.649 12.3173 14.6311 12.7974 14.4039C14.011 13.8295 14.6685 12.7885 14.6623 11.4511C14.6608 11.1114 14.6016 10.7336 14.5085 10.4692C14.4253 10.2329 14.356 10.0181 14.3546 9.99206C14.3501 9.90744 15.2276 9.3607 16.1111 8.89763C19.9407 6.89019 24.5375 6.41196 28.7041 7.58756C30.3571 8.05399 32.1457 8.87263 33.5358 9.79908L34.2222 10.2564L33.7509 10.7467C33.0044 11.5232 32.9769 11.4578 34.825 13.3021C36.2327 14.7071 36.3943 14.8444 36.6389 14.8444C36.883 14.8444 37.0446 14.7079 38.4206 13.3405C39.253 12.5132 39.9541 11.7567 39.9788 11.6592C40.0034 11.5616 39.9825 11.3827 39.9322 11.2615C39.8013 10.9457 37.0414 8.22674 36.788 8.16392C36.5 8.09251 36.2228 8.2583 35.6386 8.8513L35.1429 9.35453L34.2699 8.77106C32.6812 7.70937 30.5196 6.73916 28.737 6.28781C26.8349 5.80615 25.5769 5.67013 23.5237 5.72396C21.3125 5.78201 19.2302 6.18734 17.4408 6.90808C17.0606 7.06129 16.7392 7.17653 16.7268 7.16411C16.7145 7.15176 17.49 6.35735 18.4503 5.39879L20.1963 3.65597L20.6395 3.75511C21.885 4.03349 22.972 3.1486 22.9658 1.86111C22.9596 0.574572 21.6574 -0.325003 20.4329 0.111502ZM21.512 1.42852C21.9576 1.81142 21.6631 2.57826 21.0705 2.57826C20.738 2.57826 20.4527 2.27145 20.4527 1.91416C20.4527 1.33796 21.0748 1.05279 21.512 1.42852ZM12.0501 9.64665C13.4345 10.0592 13.8851 11.8612 12.86 12.8852C12.4848 13.26 12.0528 13.4345 11.4973 13.4356C10.6061 13.4374 9.8642 12.9008 9.61791 12.0762C9.47282 11.5904 9.47384 11.4546 9.62659 10.9409C9.79576 10.3716 10.2688 9.87955 10.8339 9.6847C11.3563 9.50453 11.5526 9.49836 12.0501 9.64665ZM37.5816 10.5869L38.479 11.4858L37.5608 12.4029L36.6427 13.3201L35.7246 12.4029L34.8064 11.4858L35.7038 10.5869C36.1973 10.0924 36.6198 9.68798 36.6427 9.68798C36.6656 9.68798 37.0881 10.0924 37.5816 10.5869ZM15.9945 13.4139C15.8042 13.4814 13.4859 15.8039 13.4047 16.0085C13.3422 16.166 13.8563 17.51 16.6212 24.4167C18.4312 28.9381 19.9545 32.6938 20.0064 32.7628C20.0582 32.8317 21.6493 33.4809 23.5421 34.2052L26.9834 35.5223L28.0784 37.6638C29.2227 39.9017 29.3544 40.0824 29.7654 39.9774C29.8755 39.9493 32.0694 37.8155 34.9807 34.9051C40.3292 29.5582 40.1979 29.7088 39.8664 29.2998C39.7898 29.2052 38.7806 28.6476 37.624 28.0606L35.521 26.9935L34.2027 23.5558C33.4777 21.6651 32.8279 20.0757 32.759 20.0239C32.6373 19.9326 16.2246 13.3537 16.1494 13.3662C16.1287 13.3695 16.059 13.391 15.9945 13.4139ZM24.1678 17.889C28.3834 19.5747 31.8519 20.9848 31.8753 21.0227C31.8989 21.0606 32.4596 22.5009 33.1216 24.2234L34.325 27.3552L30.8353 30.8412L27.3455 34.3272L24.2104 33.125C22.486 32.4638 21.0442 31.9036 21.0062 31.8801C20.9684 31.8567 19.5389 28.3449 17.8296 24.0764L14.7219 16.3153L14.89 16.1475L15.0581 15.9796L19.0942 20.0114L23.1304 24.0432L22.9297 24.3855C22.5153 25.092 22.3708 26.2434 22.5926 27.0716C23.0826 28.9009 24.9034 30.0926 26.7304 29.7796C28.2895 29.5126 29.5052 28.2981 29.7726 26.7407C30.0858 24.9162 28.8949 23.0945 27.072 22.6097C26.2312 22.3861 25.0831 22.5283 24.3727 22.9441L24.03 23.1446L19.9967 19.1156L15.9633 15.0865L16.1127 14.9216C16.1949 14.8309 16.3163 14.7719 16.3825 14.7904C16.4487 14.8089 19.9521 16.2033 24.1678 17.889ZM2.3499 20.6615C2.73792 21.049 2.463 21.7198 1.91621 21.7198C1.38859 21.7198 1.07762 20.9949 1.44694 20.626C1.67172 20.4014 2.10674 20.4185 2.3499 20.6615ZM26.9722 23.8766C27.4759 24.048 28.1281 24.6587 28.3594 25.1754C28.6055 25.725 28.613 26.5949 28.3762 27.1202C28.1443 27.6344 27.7041 28.0876 27.1939 28.3369C26.5986 28.6278 25.7733 28.6405 25.1634 28.368C24.6461 28.1369 24.0348 27.4854 23.8632 26.9823C23.7205 26.5638 23.7004 25.8804 23.8184 25.4561C24.0052 24.7841 24.7479 24.0275 25.4086 23.8362C25.8048 23.7215 26.575 23.7414 26.9722 23.8766ZM37.0338 29.2116C37.6575 29.5265 38.1934 29.8076 38.2247 29.8363C38.2559 29.8649 36.3832 31.7845 34.063 34.1019C31.7427 36.4193 29.8294 38.2993 29.811 38.2797C29.7926 38.26 29.4362 37.5616 29.0191 36.7275L28.2606 35.211L31.7193 31.7553L35.178 28.2997L35.5389 28.4694C35.7373 28.5628 36.41 28.8968 37.0338 29.2116ZM12.3971 37.5396L11.4582 38.4776L10.54 37.5604L9.62182 36.6432L10.5583 35.7052L11.4949 34.7672L12.4155 35.6844L13.3361 36.6017L12.3971 37.5396Z" fill="#47BCC4"/>
</g>
<defs>
<clipPath id="clip0_2_271">
<rect width="40" height="40" fill="white"/>
</clipPath>
</defs>
</svg>
